<svg width="1080" height="644" viewBox="0 0 1080 644" fill="none" xmlns="http://www.w3.org/2000/svg">
<rect width="1080" height="644" fill="white"/>
<g clip-path="url(#clip0_1236_2)">
<mask id="mask0_1236_2" style="mask-type:luminance" maskUnits="userSpaceOnUse" x="90" y="0" width="900" height="600">
<path d="M90 0H990V600H90V0Z" fill="white"/>
</mask>
<g mask="url(#mask0_1236_2)">
<path d="M790.153 292.613C812.494 231.304 729.168 67.4839 564.681 68.7159C488.179 69.2919 483.082 107.311 415.44 138.89C375.122 157.711 323.081 165.388 297.85 202.895C276.063 235.266 271.098 275.673 282.461 306.392C308.015 375.479 382.375 440.079 494.052 377.435C605.728 314.791 732.516 450.726 790.153 292.613Z" fill="url(#paint0_linear_1236_2)"/>
<path d="M618.968 470.065C664.651 432.483 711.918 392.195 762.99 379.799C815.672 367 820 384.748 816.587 410.206C813.175 435.664 783.376 490.165 711.775 506.532C640.155 522.904 576.22 505.239 618.968 470.065Z" fill="url(#paint1_linear_1236_2)"/>
<path d="M269.13 330.961C348.591 352.668 432.402 373.999 487.567 422.085C544.485 471.678 527.79 490.871 496.106 507.466C464.422 524.062 378.503 534.018 302.314 465.788C226.104 397.54 194.766 310.655 269.13 330.961Z" fill="url(#paint2_linear_1236_2)"/>
<path d="M726.202 250.087C728.523 258.749 737.425 263.889 746.087 261.568C754.748 259.247 759.888 250.344 757.567 241.683C755.247 233.021 746.344 227.881 737.682 230.202C729.021 232.523 723.881 241.426 726.202 250.087Z" fill="#E1E4E5"/>
<path d="M526.172 216.098C498.57 149.218 421.978 117.376 355.097 144.978C288.217 172.58 256.375 249.172 283.977 316.053L293.973 340.272C321.574 407.152 398.167 438.994 465.047 411.392C531.927 383.791 563.769 307.198 536.167 240.318L526.172 216.098Z" fill="#FC4706"/>
<path d="M384.912 268.096C388.876 266.46 390.762 261.922 389.127 257.958C387.491 253.995 382.953 252.108 378.989 253.744C375.026 255.38 373.139 259.918 374.775 263.881C376.411 267.845 380.949 269.731 384.912 268.096Z" fill="white"/>
<path d="M460.043 244.099C457.418 244.738 454.842 245.564 452.334 246.572C437.234 252.677 425.613 265.198 420.543 280.827C415.474 296.455 417.465 313.618 425.992 327.778" stroke="white" stroke-width="13.5" stroke-linecap="round" stroke-linejoin="round"/>
<path d="M464.15 246.418C470.483 261.763 470.462 278.995 464.09 294.324C457.717 309.652 445.515 321.821 430.17 328.154C422.572 331.29 414.431 332.899 406.211 332.888C397.991 332.878 389.854 331.249 382.264 328.093C374.674 324.938 367.78 320.318 361.976 314.498C356.171 308.678 351.57 301.772 348.435 294.174C345.299 286.576 343.691 278.435 343.701 270.215C343.712 261.996 345.341 253.859 348.496 246.269C351.652 238.679 356.271 231.785 362.091 225.981C367.91 220.176 374.816 215.574 382.414 212.439C390.012 209.303 398.153 207.694 406.373 207.705C414.592 207.715 422.73 209.344 430.32 212.5C437.909 215.655 444.804 220.274 450.608 226.094C456.413 231.914 461.014 238.82 464.15 246.418Z" stroke="white" stroke-width="13.5" stroke-linecap="round" stroke-linejoin="round"/>
<path d="M741.131 420.84C755.568 366.96 723.593 311.578 669.713 297.141C615.833 282.704 560.451 314.678 546.014 368.559L542.141 383.012C527.704 436.892 559.679 492.274 613.559 506.711C667.439 521.148 722.821 489.173 737.258 435.293L741.131 420.84Z" fill="#FC4706"/>
<path d="M630.668 385.045C633.861 385.901 637.143 384.006 637.998 380.813C638.854 377.62 636.959 374.339 633.766 373.483C630.574 372.628 627.292 374.522 626.436 377.715C625.581 380.908 627.476 384.19 630.668 385.045Z" fill="white"/>
<path d="M687.91 405.555C686.004 404.715 684.04 404.014 682.032 403.457C669.926 400.119 656.945 402.341 646.518 409.534C636.092 416.727 629.27 428.168 627.855 440.833" stroke="white" stroke-width="13.5" stroke-linecap="round" stroke-linejoin="round"/>
<path d="M689.338 408.899C687.698 415.02 684.869 420.758 681.011 425.786C677.153 430.813 672.343 435.032 666.855 438.2C661.367 441.369 655.308 443.425 649.026 444.252C642.743 445.079 636.358 444.66 630.237 443.02C624.116 441.38 618.378 438.55 613.351 434.693C608.323 430.835 604.105 426.025 600.936 420.537C597.768 415.049 595.711 408.991 594.884 402.708C594.057 396.425 594.476 390.041 596.116 383.92C599.428 371.557 607.515 361.017 618.598 354.617C624.087 351.448 630.145 349.392 636.428 348.565C642.711 347.739 649.095 348.157 655.216 349.798C661.338 351.437 667.076 354.267 672.104 358.124C677.132 361.982 681.351 366.792 684.52 372.28C687.688 377.768 689.745 383.827 690.572 390.11C691.398 396.393 690.979 402.778 689.338 408.899Z" stroke="white" stroke-width="13.5" stroke-linecap="round" stroke-linejoin="round"/>
<path d="M641.803 135.435L641.802 135.434C609.989 126.91 577.29 145.789 568.766 177.602L563.434 197.5C554.91 229.313 573.789 262.012 605.602 270.537L605.603 270.537C637.415 279.061 670.115 260.182 678.639 228.369L683.971 208.471C692.495 176.658 673.616 143.959 641.803 135.435Z" fill="#FC4706"/>
<path d="M618.748 187.337C620.634 187.842 622.571 186.723 623.077 184.838C623.582 182.952 622.463 181.015 620.578 180.509C618.692 180.004 616.755 181.123 616.249 183.008C615.744 184.894 616.863 186.831 618.748 187.337Z" fill="white"/>
<path d="M652.547 199.446C651.421 198.951 650.261 198.537 649.076 198.208C641.929 196.237 634.264 197.549 628.108 201.796C621.951 206.043 617.923 212.798 617.088 220.276" stroke="white" stroke-width="7.971" stroke-linecap="round" stroke-linejoin="round"/>
<path d="M653.39 201.421C651.433 208.72 646.658 214.942 640.114 218.72C633.57 222.498 625.793 223.522 618.495 221.567C614.88 220.599 611.492 218.928 608.523 216.651C605.555 214.373 603.064 211.533 601.193 208.293C599.322 205.052 598.108 201.475 597.619 197.765C597.131 194.056 597.379 190.286 598.348 186.672C599.316 183.058 600.986 179.67 603.264 176.701C605.542 173.732 608.382 171.242 611.622 169.371C614.863 167.5 618.44 166.286 622.149 165.797C625.859 165.309 629.628 165.556 633.243 166.525C640.542 168.481 646.764 173.256 650.543 179.801C654.321 186.345 655.345 194.122 653.39 201.421Z" stroke="white" stroke-width="7.971" stroke-linecap="round" stroke-linejoin="round"/>
</g>
</g>
<path d="M295.664 555.576V543.48C295.664 542.776 295.472 542.264 295.088 541.944C294.704 541.56 294.096 541.368 293.264 541.368H275.408V529.368H298.352C303.472 529.368 307.088 530.456 309.2 532.632C311.376 534.808 312.464 537.688 312.464 541.272V557.208C312.464 560.792 311.376 563.672 309.2 565.848C307.088 568.024 303.472 569.112 298.352 569.112H275.408V557.688H293.264C294.096 557.688 294.704 557.528 295.088 557.208C295.472 556.824 295.664 556.28 295.664 555.576ZM269.84 529.368H286.64V591H269.84V529.368ZM284.72 562.392H301.136L315.536 591H297.488L284.72 562.392ZM318.673 543.096H334.993V576.888C334.993 577.592 335.185 578.136 335.569 578.52C335.953 578.84 336.561 579 337.393 579H339.025C339.921 579 340.561 578.776 340.945 578.328C341.393 577.88 341.617 577.144 341.617 576.12V573.528H342.193V582.168C342.193 584.856 341.425 587 339.889 588.6C338.417 590.2 336.177 591 333.169 591H331.441C326.897 591 323.633 589.912 321.648 587.736C319.664 585.56 318.673 582.68 318.673 579.096V543.096ZM341.617 543.096H357.937V591H341.905V581.88H341.617V543.096ZM381.973 591H365.653V543.096H381.685V552.216H381.973V591ZM404.917 591H388.597V557.208C388.597 556.504 388.405 555.992 388.021 555.672C387.637 555.288 387.029 555.096 386.197 555.096H384.565C383.733 555.096 383.093 555.32 382.645 555.768C382.197 556.216 381.973 556.952 381.973 557.976V560.568H381.397V551.928C381.397 549.24 382.133 547.096 383.605 545.496C385.141 543.896 387.413 543.096 390.421 543.096H392.149C396.693 543.096 399.957 544.184 401.941 546.36C403.925 548.536 404.917 551.416 404.917 555V591ZM428.473 591H412.153V543.096H428.185V552.216H428.473V591ZM451.417 591H435.097V557.208C435.097 556.504 434.905 555.992 434.521 555.672C434.137 555.288 433.529 555.096 432.697 555.096H431.065C430.233 555.096 429.593 555.32 429.145 555.768C428.697 556.216 428.473 556.952 428.473 557.976V560.568H427.897V551.928C427.897 549.24 428.633 547.096 430.105 545.496C431.641 543.896 433.913 543.096 436.921 543.096H438.649C443.193 543.096 446.457 544.184 448.441 546.36C450.425 548.536 451.417 551.416 451.417 555V591ZM473.149 556.44V577.656C473.149 578.36 473.341 578.904 473.725 579.288C474.109 579.608 474.717 579.768 475.549 579.768H478.333V591H471.805C466.685 591 463.037 589.912 460.861 587.736C458.749 585.56 457.693 582.68 457.693 579.096V555C457.693 551.416 458.749 548.536 460.861 546.36C463.037 544.184 466.685 543.096 471.805 543.096H478.237V554.328H475.549C474.717 554.328 474.109 554.52 473.725 554.904C473.341 555.224 473.149 555.736 473.149 556.44ZM482.173 569.208V556.44C482.173 555.736 481.981 555.224 481.597 554.904C481.213 554.52 480.605 554.328 479.773 554.328H477.757V543.096H483.517C488.637 543.096 492.253 544.184 494.365 546.36C496.541 548.536 497.629 551.416 497.629 555V569.208H482.173ZM482.173 577.464V574.776H497.629V579.096C497.629 582.68 496.541 585.56 494.365 587.736C492.253 589.912 488.637 591 483.517 591H477.757V579.768H479.773C480.605 579.768 481.213 579.576 481.597 579.192C481.981 578.744 482.173 578.168 482.173 577.464ZM497.629 562.488V571.32H461.629V562.488H497.629ZM531.68 542.616V556.824H526.208C522.176 556.824 520.16 559 520.16 563.352V565.944H519.584V553.368C519.584 551.192 520 549.304 520.832 547.704C521.664 546.104 522.88 544.856 524.48 543.96C526.08 543.064 528 542.616 530.24 542.616H531.68ZM520.16 591H503.84V543.096H519.872V554.136L520.16 552.216V591ZM571.535 591H555.215V526.776H571.535V591ZM594.575 567.96H578.255V555C578.255 551.416 579.247 548.536 581.231 546.36C583.215 544.184 586.479 543.096 591.023 543.096H592.751C595.759 543.096 597.999 543.896 599.471 545.496C601.007 547.096 601.775 549.24 601.775 551.928V560.568H601.199V557.976C601.199 556.952 600.975 556.216 600.527 555.768C600.143 555.32 599.503 555.096 598.607 555.096H596.975C596.143 555.096 595.535 555.288 595.151 555.672C594.767 555.992 594.575 556.504 594.575 557.208V567.96ZM617.519 591H601.199V552.216H601.487V543.096H617.519V591ZM578.255 566.136H594.575V576.888C594.575 577.592 594.767 578.136 595.151 578.52C595.535 578.84 596.143 579 596.975 579H598.607C599.503 579 600.143 578.776 600.527 578.328C600.975 577.88 601.199 577.144 601.199 576.12V573.528H601.775V582.168C601.775 584.856 601.007 587 599.471 588.6C597.999 590.2 595.759 591 592.751 591H591.023C586.479 591 583.215 589.912 581.231 587.736C579.247 585.56 578.255 582.68 578.255 579.096V566.136ZM652.993 542.616V556.824H647.521C643.489 556.824 641.473 559 641.473 563.352V565.944H640.897V553.368C640.897 551.192 641.313 549.304 642.145 547.704C642.977 546.104 644.193 544.856 645.793 543.96C647.393 543.064 649.313 542.616 651.553 542.616H652.993ZM641.473 591H625.153V543.096H641.185V554.136L641.473 552.216V591ZM672.669 567.96H656.349V555C656.349 551.416 657.341 548.536 659.325 546.36C661.309 544.184 664.573 543.096 669.117 543.096H670.845C673.853 543.096 676.093 543.896 677.565 545.496C679.101 547.096 679.869 549.24 679.869 551.928V560.568H679.293V557.976C679.293 556.952 679.069 556.216 678.621 555.768C678.237 555.32 677.597 555.096 676.701 555.096H675.069C674.237 555.096 673.629 555.288 673.245 555.672C672.861 555.992 672.669 556.504 672.669 557.208V567.96ZM695.613 591H679.293V552.216H679.581V543.096H695.613V591ZM656.349 566.136H672.669V576.888C672.669 577.592 672.861 578.136 673.245 578.52C673.629 578.84 674.237 579 675.069 579H676.701C677.597 579 678.237 578.776 678.621 578.328C679.069 577.88 679.293 577.144 679.293 576.12V573.528H679.869V582.168C679.869 584.856 679.101 587 677.565 588.6C676.093 590.2 673.853 591 670.845 591H669.117C664.573 591 661.309 589.912 659.325 587.736C657.341 585.56 656.349 582.68 656.349 579.096V566.136ZM715.63 543.096L721.486 573.816L727.246 543.096H743.47L731.182 591H711.694L699.406 543.096H715.63ZM761.805 556.44V577.656C761.805 578.36 761.997 578.904 762.381 579.288C762.765 579.608 763.373 579.768 764.205 579.768H766.989V591H760.461C755.341 591 751.693 589.912 749.517 587.736C747.405 585.56 746.349 582.68 746.349 579.096V555C746.349 551.416 747.405 548.536 749.517 546.36C751.693 544.184 755.341 543.096 760.461 543.096H766.893V554.328H764.205C763.373 554.328 762.765 554.52 762.381 554.904C761.997 555.224 761.805 555.736 761.805 556.44ZM770.829 569.208V556.44C770.829 555.736 770.637 555.224 770.253 554.904C769.869 554.52 769.261 554.328 768.429 554.328H766.413V543.096H772.173C777.293 543.096 780.909 544.184 783.021 546.36C785.197 548.536 786.285 551.416 786.285 555V569.208H770.829ZM770.829 577.464V574.776H786.285V579.096C786.285 582.68 785.197 585.56 783.021 587.736C780.909 589.912 777.293 591 772.173 591H766.413V579.768H768.429C769.261 579.768 769.869 579.576 770.253 579.192C770.637 578.744 770.829 578.168 770.829 577.464ZM786.285 562.488V571.32H750.285V562.488H786.285ZM808.816 591H792.496V526.776H808.816V591Z" fill="#232323"/>
<circle cx="75.5" cy="74.5" r="56.5" fill="#FC4706"/>
<path d="M55.6409 56.5405C51.9589 53.2081 46.1497 53.4628 43.8319 57.8547C41.9401 61.4394 40.6577 65.3374 40.0596 69.3898C39.0208 76.4273 40.0923 83.6147 43.1384 90.0432C46.1845 96.4717 51.0685 101.853 57.1727 105.505C63.2769 109.158 70.3273 110.919 77.4321 110.565C84.537 110.21 91.3773 107.757 97.088 103.516C102.799 99.274 107.123 93.4341 109.515 86.7345C111.907 80.035 112.258 72.7766 110.525 65.8774C109.527 61.9045 107.863 58.1534 105.624 54.7746C102.881 50.6349 97.0752 50.9592 93.7428 54.6412V54.6412C90.4105 58.3232 90.9907 64.0363 92.6243 68.7259C92.7995 69.2287 92.9527 69.7403 93.0831 70.2596C93.9498 73.7092 93.7742 77.3384 92.5783 80.6882C91.3824 84.038 89.2201 86.9579 86.3647 89.0788C83.5094 91.1996 80.0892 92.4261 76.5368 92.6032C72.9844 92.7803 69.4592 91.9 66.4071 90.0736C63.355 88.2472 60.913 85.5568 59.3899 82.3425C57.8669 79.1282 57.3312 75.5345 57.8505 72.0158C57.9287 71.4862 58.0303 70.9618 58.1545 70.4441C59.3137 65.6152 59.3229 59.8728 55.6409 56.5405V56.5405Z" fill="white"/>
<path d="M57.5893 54.5969C54.266 50.9067 54.5349 45.098 58.9326 42.7911C63.5224 40.3833 68.6108 38.9791 73.8581 38.7186C79.1054 38.4581 84.3079 39.3514 89.1136 41.2928C93.7182 43.1528 94.5611 48.9063 91.6196 52.9075V52.9075C88.6781 56.9086 82.9644 57.4822 78.0428 56.8191C76.9579 56.6729 75.8558 56.6253 74.7498 56.6802C73.6438 56.7351 72.5518 56.8917 71.4868 57.1446C66.6551 58.2919 60.9126 58.287 57.5893 54.5969V54.5969Z" fill="#893405"/>
<path fill-rule="evenodd" clip-rule="evenodd" d="M257.267 46.4606C257.303 46.593 257.321 46.7294 257.322 46.8665V68.1775C257.322 68.4511 257.249 68.7197 257.111 68.9564C256.972 69.1931 256.773 69.3894 256.534 69.5255L238.484 79.8236V100.235C238.484 100.791 238.186 101.304 237.7 101.583L200.023 123.077C199.937 123.125 199.843 123.157 199.749 123.19C199.714 123.201 199.68 123.223 199.643 123.232C199.38 123.301 199.103 123.301 198.839 123.232C198.796 123.221 198.757 123.197 198.716 123.182C198.63 123.151 198.539 123.123 198.457 123.077L160.788 101.583C160.549 101.447 160.35 101.251 160.211 101.014C160.073 100.777 160 100.509 160 100.235V36.3023C160 36.1625 160.02 36.0265 160.055 35.8944C160.067 35.8498 160.094 35.809 160.11 35.7643C160.139 35.6827 160.167 35.5992 160.21 35.5235C160.239 35.473 160.282 35.4322 160.318 35.3856C160.363 35.3234 160.404 35.2593 160.457 35.2049C160.502 35.1603 160.561 35.1272 160.612 35.0884C160.668 35.0418 160.719 34.9913 160.784 34.9544H160.786L179.622 24.2076C179.86 24.0716 180.13 24 180.406 24C180.681 24 180.951 24.0716 181.19 24.2076L200.025 34.9544H200.029C200.092 34.9932 200.145 35.0418 200.202 35.0864C200.253 35.1253 200.309 35.1603 200.354 35.203C200.409 35.2593 200.449 35.3234 200.496 35.3856C200.529 35.4322 200.574 35.473 200.601 35.5235C200.646 35.6012 200.672 35.6827 200.703 35.7643C200.719 35.809 200.746 35.8498 200.758 35.8964C200.794 36.0287 200.813 36.1652 200.813 36.3023V76.2342L216.509 67.2782V46.8646C216.509 46.7286 216.528 46.5907 216.564 46.4606C216.577 46.414 216.603 46.3732 216.619 46.3285C216.65 46.2469 216.677 46.1634 216.72 46.0877C216.75 46.0372 216.793 45.9964 216.826 45.9498C216.873 45.8876 216.913 45.8235 216.967 45.7691C217.012 45.7245 217.069 45.6914 217.12 45.6526C217.179 45.606 217.23 45.5555 217.293 45.5186H217.295L236.132 34.7718C236.371 34.6356 236.641 34.5639 236.916 34.5639C237.191 34.5639 237.462 34.6356 237.7 34.7718L256.536 45.5186C256.603 45.5574 256.653 45.606 256.712 45.6507C256.761 45.6895 256.818 45.7245 256.863 45.7672C256.918 45.8235 256.957 45.8876 257.004 45.9498C257.04 45.9964 257.083 46.0372 257.11 46.0877C257.155 46.1634 257.181 46.2469 257.212 46.3285C257.23 46.3732 257.255 46.414 257.267 46.4606V46.4606ZM254.182 67.2782V49.5566L247.59 53.3169L238.484 58.5126V76.2342L254.184 67.2782H254.182ZM235.346 99.336V81.6028L226.389 86.6722L200.811 101.138V119.039L235.346 99.336ZM163.14 38.9924V99.336L197.671 119.037V101.14L179.631 91.023L179.625 91.0191L179.618 91.0152C179.557 90.9802 179.506 90.9297 179.449 90.887C179.4 90.8482 179.343 90.8171 179.3 90.7743L179.296 90.7685C179.245 90.72 179.21 90.6597 179.167 90.6054C179.128 90.5529 179.081 90.5083 179.049 90.4539L179.047 90.448C179.012 90.3898 178.99 90.3198 178.965 90.2538C178.939 90.1955 178.906 90.1412 178.89 90.079V90.0771C178.871 90.0032 178.867 89.9256 178.859 89.8498C178.851 89.7915 178.836 89.7333 178.836 89.675V89.6711V47.9484L169.731 42.7508L163.14 38.9944V38.9924ZM180.408 27.3502L164.714 36.3023L180.404 45.2544L196.095 36.3004L180.404 27.3502H180.408ZM188.569 83.2188L197.673 78.025V38.9924L191.082 42.7527L181.976 47.9484V86.981L188.569 83.2188ZM236.916 37.9144L221.225 46.8665L236.916 55.8186L252.606 46.8646L236.916 37.9144V37.9144ZM235.346 58.5126L226.24 53.3169L219.649 49.5566V67.2782L228.753 72.472L235.346 76.2342V58.5126ZM199.239 98.4484L222.255 85.4272L233.761 78.9204L218.081 69.9742L200.027 80.2742L183.573 89.6614L199.239 98.4484V98.4484Z" fill="#FF2D20"/>
<defs>
<linearGradient id="paint0_linear_1236_2" x1="758.124" y1="-125.348" x2="217.355" y2="833.857" gradientUnits="userSpaceOnUse">
<stop stop-color="white"/>
<stop offset="1" stop-color="#EEEEEE"/>
</linearGradient>
<linearGradient id="paint1_linear_1236_2" x1="615.181" y1="632.605" x2="859.283" y2="157.67" gradientUnits="userSpaceOnUse">
<stop stop-color="white"/>
<stop offset="1" stop-color="#EEEEEE"/>
</linearGradient>
<linearGradient id="paint2_linear_1236_2" x1="81.3163" y1="457.376" x2="817.514" y2="352.906" gradientUnits="userSpaceOnUse">
<stop stop-color="white"/>
<stop offset="1" stop-color="#EEEEEE"/>
</linearGradient>
<clipPath id="clip0_1236_2">
<rect width="900" height="600" fill="white" transform="translate(90)"/>
</clipPath>
</defs>
</svg>
